<?xml version="1.0" encoding="UTF-8" standalone="no"?>
<svg
   width="24"
   height="24"
   viewBox="0 0 24 24"
   fill="none"
   version="1.1"
   id="svg8"
   sodipodi:docname="close1.svg"
   inkscape:version="1.2.1 (9c6d41e410, 2022-07-14)"
   xmlns:inkscape="http://www.inkscape.org/namespaces/inkscape"
   xmlns:sodipodi="http://sodipodi.sourceforge.net/DTD/sodipodi-0.dtd"
   xmlns="http://www.w3.org/2000/svg"
   xmlns:svg="http://www.w3.org/2000/svg">
  <defs
     id="defs12" />
  <sodipodi:namedview
     id="namedview10"
     pagecolor="#ffffff"
     bordercolor="#000000"
     borderopacity="0.25"
     inkscape:showpageshadow="2"
     inkscape:pageopacity="0.0"
     inkscape:pagecheckerboard="0"
     inkscape:deskcolor="#d1d1d1"
     showgrid="false"
     inkscape:zoom="36.541667"
     inkscape:cx="8.2371722"
     inkscape:cy="12.013683"
     inkscape:window-width="1858"
     inkscape:window-height="1057"
     inkscape:window-x="54"
     inkscape:window-y="-8"
     inkscape:window-maximized="1"
     inkscape:current-layer="svg8" />
  <g
     id="g256">
    <path
       style="color:#000000;fill:#1463f5;stroke-linecap:round;stroke-linejoin:round;-inkscape-stroke:none"
       d="M 12,1 C 5.9545515,1 1,5.9545515 1,12 1,18.045448 5.9545515,23 12,23 18.045448,23 23,18.045448 23,12 23,5.9545515 18.045448,1 12,1 Z m 0,2 c 4.95454,0 9,4.0454595 9,9 0,4.95454 -4.04546,9 -9,9 C 7.0454595,21 3,16.95454 3,12 3,7.0454595 7.0454595,3 12,3 Z"
       id="path2" />
    <path
       style="color:#000000;fill:#1463f5;stroke-linecap:round;stroke-linejoin:round"
       d="M 14.123047,8.4628906 8.4628906,14.123047 a 1,1 0 0 0 0,1.414062 1,1 0 0 0 1.4140625,0 L 15.537109,9.8769531 a 1,1 0 0 0 0,-1.4140625 1,1 0 0 0 -1.414062,0 z"
       id="path4" />
    <path
       style="color:#000000;fill:#1463f5;stroke-linecap:round;stroke-linejoin:round"
       d="m 8.4628906,8.4628906 a 1,1 0 0 0 0,1.4140625 l 5.6601564,5.6601559 a 1,1 0 0 0 1.414062,0 1,1 0 0 0 0,-1.414062 L 9.8769531,8.4628906 a 1,1 0 0 0 -1.4140625,0 z"
       id="path6" />
  </g>
</svg>
