<?xml version="1.0" encoding="UTF-8" standalone="no"?>
<svg
   width="24"
   height="24"
   viewBox="0 0 24 24"
   fill="none"
   version="1.1"
   id="svg4"
   sodipodi:docname="favorite_active1.svg"
   inkscape:version="1.2.1 (9c6d41e410, 2022-07-14)"
   xmlns:inkscape="http://www.inkscape.org/namespaces/inkscape"
   xmlns:sodipodi="http://sodipodi.sourceforge.net/DTD/sodipodi-0.dtd"
   xmlns="http://www.w3.org/2000/svg"
   xmlns:svg="http://www.w3.org/2000/svg">
  <defs
     id="defs8" />
  <sodipodi:namedview
     id="namedview6"
     pagecolor="#ffffff"
     bordercolor="#000000"
     borderopacity="0.25"
     inkscape:showpageshadow="2"
     inkscape:pageopacity="0.0"
     inkscape:pagecheckerboard="0"
     inkscape:deskcolor="#d1d1d1"
     showgrid="false"
     inkscape:zoom="36.541667"
     inkscape:cx="8.2371722"
     inkscape:cy="12.013683"
     inkscape:window-width="1858"
     inkscape:window-height="1057"
     inkscape:window-x="54"
     inkscape:window-y="-8"
     inkscape:window-maximized="1"
     inkscape:current-layer="svg4" />
  <g
     id="g139">
    <path
       d="M13.7289 3.4325L15.4889 6.9525C15.7289 7.4425 16.3689 7.9125 16.9089 8.0025L20.0989 8.5325C22.1389 8.8725 22.6189 10.3525 21.1489 11.8125L18.6689 14.2925C18.2489 14.7125 18.0189 15.5225 18.1489 16.1025L18.8589 19.1725C19.4189 21.6025 18.1289 22.5425 15.9789 21.2725L12.9889 19.5025C12.4489 19.1825 11.5589 19.1825 11.0089 19.5025L8.01893 21.2725C5.87893 22.5425 4.57893 21.5925 5.13893 19.1725L5.84893 16.1025C5.97893 15.5225 5.74893 14.7125 5.32893 14.2925L2.84893 11.8125C1.38893 10.3525 1.85893 8.8725 3.89893 8.5325L7.08893 8.0025C7.61893 7.9125 8.25893 7.4425 8.49893 6.9525L10.2589 3.4325C11.2189 1.5225 12.7789 1.5225 13.7289 3.4325Z"
       fill="#F9F9F9"
       id="path136" />
  </g>
</svg>
