<?xml version="1.0" encoding="UTF-8" standalone="no"?>
<svg
   width="24"
   height="24"
   viewBox="0 0 24 24"
   fill="none"
   version="1.1"
   id="svg4"
   sodipodi:docname="favorite_default1.svg"
   inkscape:version="1.2.1 (9c6d41e410, 2022-07-14)"
   xmlns:inkscape="http://www.inkscape.org/namespaces/inkscape"
   xmlns:sodipodi="http://sodipodi.sourceforge.net/DTD/sodipodi-0.dtd"
   xmlns="http://www.w3.org/2000/svg"
   xmlns:svg="http://www.w3.org/2000/svg">
  <defs
     id="defs8" />
  <sodipodi:namedview
     id="namedview6"
     pagecolor="#ffffff"
     bordercolor="#000000"
     borderopacity="0.25"
     inkscape:showpageshadow="2"
     inkscape:pageopacity="0.0"
     inkscape:pagecheckerboard="0"
     inkscape:deskcolor="#d1d1d1"
     showgrid="false"
     inkscape:zoom="36.541667"
     inkscape:cx="8.2371722"
     inkscape:cy="12.013683"
     inkscape:window-width="1858"
     inkscape:window-height="1057"
     inkscape:window-x="54"
     inkscape:window-y="-8"
     inkscape:window-maximized="1"
     inkscape:current-layer="svg4" />
  <g
     id="g242">
    <path
       style="color:#000000;fill:#f9f9f9;stroke-linecap:round;stroke-linejoin:round;-inkscape-stroke:none"
       d="m 11.998047,1.078125 c -1.135045,0 -2.0532541,0.8332278 -2.6308595,1.9824219 A 1.0001,1.0001 0 0 0 9.3652344,3.0625 L 7.6054687,6.5820312 a 1.0001,1.0001 0 0 0 -0.00391,0.00781 C 7.5593565,6.6760161 7.0163684,7.0777039 6.921875,7.09375 L 3.7363281,7.6230469 C 2.4965224,7.8296812 1.4485199,8.463336 1.109375,9.5253906 0.77023008,10.587445 1.2551759,11.710254 2.1425781,12.597656 l 2.4804688,2.478516 c 0.094313,0.09431 0.2824824,0.740546 0.2519531,0.882812 l -0.7089844,3.066407 c -0.1623984,0.701793 -0.2068587,1.340977 -0.095703,1.935546 0.1111556,0.59457 0.4090159,1.167011 0.9082031,1.53125 0.9983745,0.728479 2.3102477,0.454955 3.5507813,-0.28125 l 2.9843751,-1.765625 c 0.144687,-0.08418 0.841367,-0.08019 0.966797,-0.0059 a 1.0001,1.0001 0 0 0 0,0.002 l 2.990234,1.769531 c 0.621714,0.367246 1.218362,0.603699 1.818359,0.679688 0.599998,0.07599 1.236319,-0.03002 1.736329,-0.394531 0.500009,-0.364515 0.796334,-0.938524 0.90625,-1.533203 0.109916,-0.59468 0.06438,-1.234383 -0.09766,-1.9375 L 19.125,15.958984 c -0.03053,-0.142266 0.15764,-0.788499 0.251953,-0.882812 l 2.478516,-2.476563 c 0.89348,-0.887402 1.37869,-2.013479 1.037109,-3.0761715 C 22.550997,8.4607445 21.503216,7.8296376 20.263672,7.6230469 L 17.074219,7.09375 C 16.964705,7.0754978 16.430878,6.6760161 16.388672,6.5898437 a 1.0001,1.0001 0 0 0 -0.0039,-0.00781 L 14.625,3.0644531 C 14.052803,1.9140351 13.133091,1.078125 11.998047,1.078125 Z m 0,2 c 0.122454,0 0.458136,0.117373 0.835937,0.8769531 a 1.0001,1.0001 0 0 0 0.002,0.00195 l 1.755859,3.5136718 c 6.73e-4,0.00137 0.0013,0.00253 0.002,0.00391 l 0.002,0.00195 c 0.438238,0.8898042 1.18236,1.4285054 2.150391,1.5898438 l 3.189453,0.5292968 c 0.800454,0.133409 1.011816,0.4137149 1.052734,0.5410159 0.04092,0.127301 0.03355,0.470372 -0.542969,1.042969 a 1.0001,1.0001 0 0 0 -0.002,0.0039 l -2.480468,2.478515 c -0.745493,0.745493 -1.017575,1.716815 -0.789063,2.736328 a 1.0001,1.0001 0 0 0 0.002,0.0078 l 0.708985,3.068359 c 0.117964,0.511882 0.121724,0.899681 0.08008,1.125 -0.04165,0.22532 -0.09595,0.263813 -0.117188,0.279297 -0.02124,0.01548 -0.07758,0.05831 -0.30664,0.0293 -0.228552,-0.02895 -0.598882,-0.151467 -1.050782,-0.417969 l -0.002,-0.002 L 13.5,18.71875 c -0.954569,-0.565671 -2.036876,-0.559724 -2.992187,-0.0039 A 1.0001,1.0001 0 0 0 10.5,18.71875 L 7.5097656,20.490234 C 6.6103014,21.024029 6.2028745,20.90902 6.15625,20.875 6.1329377,20.85799 6.0771255,20.818243 6.0351562,20.59375 5.993187,20.369257 5.99568,19.982815 6.1132812,19.474609 L 6.8242187,16.40625 a 1.0001,1.0001 0 0 0 0.00195,-0.0078 C 7.0546836,15.378924 6.7826022,14.407602 6.0371094,13.662109 L 3.5566406,11.183594 C 2.9840443,10.610997 2.9747703,10.262705 3.015625,10.134766 3.0564797,10.006826 3.2642609,9.7290685 4.0644531,9.5957031 L 7.2539062,9.0664063 a 1.0001,1.0001 0 0 0 0.00391,0 C 8.2208681,8.9028685 8.9563327,8.3663408 9.3945313,7.4765625 l 0.00391,-0.00586 1.7558595,-3.5117187 v -0.00195 C 11.536151,3.1985847 11.875734,3.078125 11.998047,3.078125 Z"
       id="path2" />
  </g>
</svg>
