<?xml version="1.0" encoding="UTF-8" standalone="no"?>
<svg
   width="24"
   height="24"
   viewBox="0 0 24 24"
   fill="none"
   version="1.1"
   id="svg6"
   sodipodi:docname="search1.svg"
   inkscape:version="1.2.1 (9c6d41e410, 2022-07-14)"
   xmlns:inkscape="http://www.inkscape.org/namespaces/inkscape"
   xmlns:sodipodi="http://sodipodi.sourceforge.net/DTD/sodipodi-0.dtd"
   xmlns="http://www.w3.org/2000/svg"
   xmlns:svg="http://www.w3.org/2000/svg">
  <defs
     id="defs10" />
  <sodipodi:namedview
     id="namedview8"
     pagecolor="#ffffff"
     bordercolor="#000000"
     borderopacity="0.25"
     inkscape:showpageshadow="2"
     inkscape:pageopacity="0.0"
     inkscape:pagecheckerboard="0"
     inkscape:deskcolor="#d1d1d1"
     showgrid="false"
     inkscape:zoom="36.541667"
     inkscape:cx="8.2371722"
     inkscape:cy="12.013683"
     inkscape:window-width="1858"
     inkscape:window-height="1057"
     inkscape:window-x="54"
     inkscape:window-y="-8"
     inkscape:window-maximized="1"
     inkscape:current-layer="svg6" />
  <path
     style="color:#000000;fill:#1463f5;stroke-linecap:round;stroke-linejoin:round;-inkscape-stroke:none"
     d="M 11,1 C 5.4890047,1 1,5.4890047 1,11 1,16.511031 5.4890101,21 11,21 16.511026,21 21,16.511026 21,11 21,5.4890101 16.511031,1 11,1 Z m 0,2 c 4.430159,0 8,3.5698798 8,8 0,4.430165 -3.569835,8 -8,8 C 6.5698798,19 3,15.430159 3,11 3,6.5698852 6.5698852,3 11,3 Z"
     id="path2" />
  <path
     style="color:#000000;fill:#1463f5;stroke-linecap:round;stroke-linejoin:round"
     d="m 20.355469,17.722656 c -0.830275,-0.006 -1.627532,0.342525 -2.089844,0.984375 -0.463119,0.642972 -0.545917,1.507348 -0.285156,2.296875 0.3333,1.00619 1.006104,1.848958 2.001953,1.982422 0.995849,0.133464 1.865853,-0.501687 2.451172,-1.382812 0.550694,-0.829282 0.767152,-1.831846 0.318359,-2.669922 -0.447835,-0.836289 -1.401514,-1.209342 -2.396484,-1.210938 z m -0.01367,1.998047 a 1.0001,1.0001 0 0 0 0.0078,0 c 0.542727,0 0.636918,0.149327 0.640625,0.15625 0.0037,0.0069 0.07665,0.168423 -0.222656,0.619141 -0.34468,0.518873 -0.545381,0.504348 -0.519531,0.507812 0.02579,0.0035 -0.172892,-0.03707 -0.369141,-0.626953 -0.09924,-0.300472 -0.04211,-0.427972 0.0098,-0.5 0.05188,-0.07203 0.14497,-0.158953 0.453125,-0.15625 z"
     id="path4" />
</svg>
